<?xml version="1.0" standalone="no"?><!DOCTYPE svg PUBLIC "-//W3C//DTD SVG 1.1//EN" "http://www.w3.org/Graphics/SVG/1.1/DTD/svg11.dtd"><svg t="1597821377821" class="icon" viewBox="0 0 1024 1024" version="1.1" xmlns="http://www.w3.org/2000/svg" p-id="2962" xmlns:xlink="http://www.w3.org/1999/xlink" width="64" height="64"><defs><style type="text/css"></style></defs><path d="M0 160h1024v864H0z" fill="#ffffff" p-id="2963"></path><path d="M139.2 38.4h224v16h-224zM139.2 86.4h128v16h-128zM944 900.8H60.8V704h6.4v188.8H944z" fill="#ffffff" p-id="2964"></path><path d="M400 508.8l88-369.6 176 228.8h-1.6L400 508.8z m91.2-361.6l-84.8 353.6 252.8-134.4L491.2 147.2zM233.6 740.8L142.4 488 232 272v468.8zM147.2 488l81.6 228.8V291.2L147.2 488z" fill="#ffffff" p-id="2965"></path><path d="M472 819.2l-72-320 177.6 160-1.6 1.6-104 158.4z m-65.6-308.8l67.2 299.2 99.2-150.4-166.4-148.8z" fill="#ffffff" p-id="2966"></path><path d="M572.8 662.4l1.6-3.2 88-297.6 1.6 4.8L768 609.6h-1.6l-193.6 52.8z m89.6-289.6L579.2 656l184-49.6-100.8-233.6z" fill="#ffffff" p-id="2967"></path><path d="M473.6 817.6l-1.6-1.6-243.2-86.4 172.8-225.6-172.8-224 1.6-1.6 259.2-137.6 1.6 3.2-257.6 137.6 172.8 222.4-171.2 224 236.8 84.8 292.8-206.4 1.6 3.2z" fill="#ffffff" p-id="2968"></path><path d="M412.8 504m-43.2 0a43.2 43.2 0 1 0 86.4 0 43.2 43.2 0 1 0-86.4 0Z" fill="#ffffff" p-id="2969"></path><path d="M576 659.2m-43.2 0a43.2 43.2 0 1 0 86.4 0 43.2 43.2 0 1 0-86.4 0Z" fill="#ffffff" p-id="2970"></path><path d="M670.4 376m-68.8 0a68.8 68.8 0 1 0 137.6 0 68.8 68.8 0 1 0-137.6 0Z" fill="#ffffff" p-id="2971"></path><path d="M497.6 152m-54.4 0a54.4 54.4 0 1 0 108.8 0 54.4 54.4 0 1 0-108.8 0Z" fill="#ffffff" p-id="2972"></path><path d="M240 737.6m-43.2 0a43.2 43.2 0 1 0 86.4 0 43.2 43.2 0 1 0-86.4 0Z" fill="#ffffff" p-id="2973"></path><path d="M756.8 600m-43.2 0a43.2 43.2 0 1 0 86.4 0 43.2 43.2 0 1 0-86.4 0Z" fill="#ffffff" p-id="2974"></path><path d="M153.6 488m-25.6 0a25.6 25.6 0 1 0 51.2 0 25.6 25.6 0 1 0-51.2 0Z" fill="#ffffff" p-id="2975"></path><path d="M240 280m-25.6 0a25.6 25.6 0 1 0 51.2 0 25.6 25.6 0 1 0-51.2 0Z" fill="#ffffff" p-id="2976"></path><path d="M464 806.4m-25.6 0a25.6 25.6 0 1 0 51.2 0 25.6 25.6 0 1 0-51.2 0Z" fill="#ffffff" p-id="2977"></path></svg>